<svg xmlns="http://www.w3.org/2000/svg" height="250" width="250" viewBox="0 0 250 250">
    <path
        d="m124.9 1.0975c-68.376 0-124 55.621-124 124 0 68.373 55.624 124 124 124s124-55.627 124-124c0-68.379-55.624-124-124-124" />
    <path fill="#fff"
        d="m124.9 6.1494c-65.58 0-118.94 53.355-118.94 118.94-0.0033 65.58 53.36 118.94 118.94 118.94 65.582 0 118.94-53.36 118.94-118.95 0-65.588-53.357-118.94-118.94-118.94z" />
    <path fill="#a60c31"
        d="m124.9 11.206c-62.895 0-113.88 50.993-113.88 113.89-0.0014 62.895 50.987 113.88 113.88 113.88 62.892 0 113.89-50.987 113.89-113.88 0-62.898-50.998-113.89-113.89-113.89z" />
    <path fill="#fff"
        d="m124.9 50.709c-41.085 0-74.389 33.304-74.389 74.383 0 41.082 33.304 74.383 74.389 74.383 41.076 0 74.383-33.301 74.383-74.383 0-41.079-33.307-74.383-74.383-74.383z" />
    <path fill="#c8c8c8"
        d="m125.86 18.647-15.652 0.8319 0.21855 4.7283h1.8073l0.65565 14.223-1.7624 0.15411 0.22976 4.9566 16.134-0.80976c1.9894-0.09527 2.8356-2.3508 2.8188-4.3066l-0.30821-5.0687c-0.53237-1.6279-1.9698-2.6927-3.7518-3.0261 1.9389-0.35304 3.1858-1.8016 3.5108-3.7313 0.0953-2.865-0.48193-8.1444-3.9003-7.9516zm30.449 4.6353-9.9105 16.855-1.6924-0.62203-1.74 4.7213 7.6129 2.8132 2.8356-5.2873 3.9451 1.457-1.4234 5.8112 7.4392 2.7431 1.7708-4.7941-1.5859-0.58561 3.113-19.286-10.364-3.8255zm-33.52 0.62399 0.21295 4.5464-3.8303 0.17092-0.20734-4.5422 3.8246-0.17512zm-38.93 2.9017-9.9721 4.7605 5.178 18.851-1.6307 0.77894 2.1659 4.5476 7.3271-3.5024-1.8101-5.7132 3.7966-1.8129 3.169 5.0687 7.159-3.4212-2.2051-4.612-1.5271 0.7257-11.65-15.671zm76.171 2.3368 0.18212 0.06444-1.8829 9.7564-3.0373-1.1152 4.7381-8.7056zm-79.177 3.7574 5.6935 8.1593-2.9168 1.3926-2.9448-9.4678 0.16812-0.08406zm42.435 0.15411 0.23537 5.0743-3.9087 0.17932-0.23537-5.0687 3.9087-0.18493zm68.056 7.6717-3.6397 3.5361 1.1768 1.216-10.221 9.9217-1.1768-1.1068-3.5585 3.4576 5.6543 5.8252 9.1708-8.9102c-0.82378 3.6313-1.6784 7.3971-2.5049 11.026l10.858-2.844-9.3809 9.1063 5.6319 5.8 3.6649-3.5613-1.202-1.2385 10.107-9.8236 1.1376 1.0563 3.6341-3.5332-5.4498-5.6095-11.575 3.0737 3.2502-11.645-5.5759-5.7468zm-144.78 12.287l-6.9656 7.739 3.7154 3.3427 1.1824-1.3141 10.594 9.5294-1.1376 1.2581 3.8022 3.4212 12.219-13.584-6.932-6.2287-4.3738 4.8614 3.1298 2.8132-2.0398 2.264-10.53-9.479 1.1068-1.2301-3.7714-3.3932zm-20.292 31.838-3.6675 10.426 17.008 9.6471-0.59401 1.6924 4.7493 1.6756 2.6927-7.6577-5.3321-2.7515 1.3982-3.9732 5.8224 1.3337 2.631-7.4812-4.8221-1.6952-0.55759 1.5915-19.328-2.8075zm197.83 1.4066-19.361 2.7431-0.56319-1.7092-4.7829 1.5775 2.5386 7.7053 5.9065-1.0731 1.3113 3.9956-5.4274 2.5049 2.4881 7.5316 4.8558-1.6027-0.53798-1.6055 17.033-9.577-3.4604-10.49zm-195.63 5.0239 9.79 1.7344-1.0731 3.0429-8.7785-4.6008 0.06164-0.17652zm193.36 1.5439 0.0532 0.18493-8.8037 4.598-1.0143-3.0653 9.7648-1.7176zm-16.15 49.51-4.4159 14.394 4.8586 1.4878 0.41188-1.3562 13.839 4.245-0.41469 1.3589 4.8922 1.499 4.5083-14.699-7.9939-2.4573-1.485 4.8193 3.1046 0.95827-0.94705 3.099-5.0015-1.5327 1.2973-4.2197-4.3514-1.3309-1.3674 4.1917-4.4131-1.3561 0.94706-3.0961 2.5554 0.77613 1.387-4.5139-7.4111-2.2668zm-164.01 0.0756c-0.51556-0.0252-1.0507 0.0364-1.5831 0.19334l-14.589 4.2562c-2.5288 0.73971-4.8434 2.6282-4.241 4.6848l2.9331 10.306 8.7238-2.5442-1.4458-4.965-3.7434 1.09-0.88541-3.0205 13.889-4.0572 0.88541 3.0233-2.7795 0.81537 1.373 4.7157 7.6633-2.2388-2.9168-10.009c-0.38667-1.3141-1.7372-2.1687-3.2839-2.25zm8.022 17.081-4.4271 2.6366 0.66126 1.2553-12.373 7.3663-0.79295-1.1768-4.329 2.5722 3.6565 6.1503 8.5964-5.1164 1.6588 2.7851-6.593 3.9227c-0.91904 0.55199-1.7456 1.6307-1.2273 2.4965l2.8188 4.7325 4.3991-2.6142-0.66126-1.2525 3.0149-1.9502c1.5803-1.0115 2.065-2.5105 1.7176-4.1301 1.2385 0.7229 2.816 1.3646 4.4551 0.46512l3.5809-1.9866c2.2135-1.2104 3.1634-3.8583 2.1155-5.6207l-6.2707-10.535zm150.11 3.452c-0.94425 0.014-1.7988 0.33904-2.2528 1.0732l-6.8732 11.012 4.3878 2.7039 0.77614-1.2637 12.32 7.5961-0.67247 1.2469 4.2898 2.6478 6.7583-11.121c0.80976-1.3085 0.13449-3.2082-1.429-4.1637l-14.497-8.941c-0.82657-0.51275-1.8605-0.80696-2.8076-0.79015zm-151.08 5.3741 1.6644 2.7879-4.1048 2.4405-1.6559-2.7767 4.0964-2.4517zm151.86 0.67527 12.289 7.5736-1.6672 2.7095-12.287-7.5708 1.6644-2.7123zm-138.37 9.5658-3.7378 3.5445 1.0227 1.0788-10.502 9.9609-0.88541-0.93025-3.6565 3.4688 5.7692 6.0802 3.7154-3.5248-0.98068-1.0283 10.443-9.9161 0.93585 0.98909 3.7378-3.5613-5.8617-6.1615zm124.88 0.52957-5.8925 6.1419 3.7154 3.5669 1.0227-1.0675 10.437 10.031-0.89382 0.93025 3.6341 3.4912 5.8084-6.041-3.6958-3.5417-0.97788 1.0199-10.384-9.9777 0.94145-0.97788-3.7154-3.5753zm-115.66 9.5658-2.7207 4.3794 1.2048 0.74252-7.6465 12.292-1.1908-0.65005-2.6618 4.2842 5.7804 3.5949 6.8564-11.026c-0.22696 3.5893-0.46232 7.3075-0.68928 10.894l9.1736-5.985-7.0105 11.283 5.744 3.5781 2.7431-4.4046-1.2273-0.76493 7.5652-12.166 1.132 0.62203 2.7263-4.3822-5.5731-3.4576-9.7788 6.4249 1.2749-11.723-5.702-3.536zm106.06 0.30261-15.021 9.9049 4.9706 7.5176 3.4688-2.2864-2.1631-3.2783 1.6532-1.0956 7.9687 12.085-1.0227 0.67247 2.8188 4.2758 6.9712-4.598-2.8244-4.273-1.1264 0.74812-7.9687-12.082 1.6588-1.0956 2.2051 3.3483 3.4212-2.2528-5.0099-7.5905zm-23.875 13.833-6.6154 1.6083 2.9112 11.947-8.2209-10.731-6.6154 1.6195 1.2244 5.0127 1.4346-0.36145 3.4324 14.066-1.4402 0.35585 1.216 4.9622 6.6742-1.6251-2.9925-12.242 8.2629 10.874 5.2536-1.2048-4.6232-18.947 1.2973-0.40348-1.1992-4.9314zm-54.218 0.74532c-0.23816-0.0168-0.48194-0.014-0.7201 0.0168-1.4374 0.17092-2.7963 1.1432-3.2531 2.8272l-1.5102 5.6487c-0.63044 2.3648 0.1457 4.9426 2.1239 5.4722l5.3265 1.4234-1.3029 4.8698-3.0121-0.79856 0.61923-2.3312-5.2705-1.4066-1.9642 7.3383 10.589 2.8356c1.7092 0.45952 3.6509-0.95827 4.2141-3.0597l1.6924-6.31c0.58561-2.1743-0.13449-4.4971-1.9277-4.9791l-5.5703-1.499 1.216-4.5364 3.1354 0.84619-0.56319 2.1014 4.8137 1.2861 1.8661-7.0105-9.7956-2.6198c-0.22976-0.0644-0.46512-0.0981-0.70609-0.11488zm19.922 3.7098c-1.6391-0.0336-3.6257 1.3001-3.679 3.5136l-0.40908 17.599c-0.0476 1.9866 1.401 3.508 3.0373 3.5473l8.2517 0.19053c1.8297 0.0392 3.0205-2.2219 3.0709-4.399l0.38106-16.489c0.0504-2.0622-1.3253-3.7378-3.0625-3.777l-7.5905-0.18493zm1.9249 5.248 3.0877 0.0701-0.33343 14.433-3.0934-0.0728 0.33904-14.43z" />
    <path fill="#a60c31"
        d="m159.52 76.716c-4.654 3.5613-9.3333 7.173-13.242 7.7558-3.5725 0.85739-25.388 2.5722-23.856-7.4111-2.4349 0.19614-3.805 3.0569-3.791 5.5338 0.79015 10.779 14.797 8.6356 23.329 9.6919-8.8065 11.017-16.54 22.43-23.528 34.245-5.5422 1.0619-6.2708-5.8084-5.3293-7.6997 0 0-3.6537 1.0227-5.0687 5.0239-1.712 4.2085 0.22696 11.323 6.1895 11.718-5.9009 10.381-12.979 27.392-27.453 23.99-4.853-0.99749-10.513-9.2044-7.5793-14.08 1.796-2.4965-0.8714-4.2534-3.9255-0.54638-7.512 8.291-0.26618 24.848 15.478 23.853 16.927 0.37266 28.344-20.667 34.509-33.164l16.052-2.5218-1.0255 13.096c-2.0202 32.564 21.421 19.997 21.421 19.997 3.2559-1.4794 6.677-5.0379 6.5874-9.196-0.17092-1.401-0.94986-0.863-1.7232-0.46512-8.2769 4.2702-14.486 3.3791-15.147-1.7764-0.74252-5.7664-0.33904-13.884-0.0673-16.977 0.0981-1.1264 0.44551-4.7913 0.66406-5.8953 2.8216-0.59121 6.593-1.9698 6.593 2.9392 1.4346-0.7285 4.0488-2.8748 4.4943-5.1556 2.4965-11.782-9.8516-8.6888-9.8516-8.6888 3.0093-13.923 6.2483-28.737 13.147-40.967l-6.876-3.3007zm-9.8768 19.664c-2.6899 8.5768-4.8782 18.311-6.9712 26.98l-12.144 1.4766c6.0522-9.6835 9.3613-18.641 19.115-28.457z" />
</svg>